# xmcd
#
# Track frame offsets: 
#        150
#        11655
#        19883
#        28858
#        38682
#        49237
#        59287
#        70228
#        82565
#        91140
#        102119
#        114609
#        125670
#        138015
#        149658
#        160153
#        168561
#        180089
#        191513
#        202046
#        214062
#        228180
#        240264
#        256142
#        269482
#
# Disc length: 3760 seconds
#
# Revision: 1
# Processed by: cddbd v1.5.2PL0 Copyright (c) Steve Scherf et al.
# Submitted via: ExactAudioCopyFreeDBPlugin 1.0
#
DISCID=4f0eae19
DTITLE=Various Artist - Mod:  The Early Years [Real Gone Music]
DYEAR=2017
DGENRE=Rhythm and Blues
TTITLE0=Ernie K-Doe - Mother-in-Law
TTITLE1=Chuck Berry - Come On
TTITLE2=Ernest Ranglin and The G.B,'s - Harmonica Twist
TTITLE3=Lee Dorsey - Do-Re-Mi
TTITLE4=Willie Mabon - Why Did it Happen to Me
TTITLE5=The Showmen - It Will Stand
TTITLE6=Don and Bob - Good Morning Little Schoolgirl
TTITLE7=Wilbert Harrison - Let's Stick Together
TTITLE8=Clyde McPhatter - Lover Please
TTITLE9=Les Cooper - Dig Yourself
TTITLE10=Homesick James - Crossroads
TTITLE11=Chris Kenner - Land of 1000 Dances
TTITLE12=Mary Wells - You Beat Me to the Punch
TTITLE13=The Supremes - Your Heart Belongs to Me
TTITLE14=Lightnin' Slim - Mind Your Own Business
TTITLE15=Takoshi Fujiki - Twist No. 1
TTITLE16=The Drifters - When My Little Girl is Smiling
TTITLE17=The Cascades - Rhythm of the Rain
TTITLE18=Doctor Ross - Cat Squirrel
TTITLE19=Sam Cooke - Twistin' the Night Away
TTITLE20=The Drivers - Mr. Astronaut
TTITLE21=Ray Barreto - El Watusi
TTITLE22=James Brown - Night Train
TTITLE23=Owen Gray - Nobody Else
TTITLE24=Martha Reeves and The Vandellas - I'll Have to Let Him Go
EXTD=
EXTT0=
EXTT1=
EXTT2=
EXTT3=
EXTT4=
EXTT5=
EXTT6=
EXTT7=
EXTT8=
EXTT9=
EXTT10=
EXTT11=
EXTT12=
EXTT13=
EXTT14=
EXTT15=
EXTT16=
EXTT17=
EXTT18=
EXTT19=
EXTT20=
EXTT21=
EXTT22=
EXTT23=
EXTT24=
PLAYORDER=
